<?xml version="1.0" encoding="UTF-8"?>
<svg width="100px" height="100px" viewBox="0 0 100 100" version="1.1" xmlns="http://www.w3.org/2000/svg" xmlns:xlink="http://www.w3.org/1999/xlink">
    <!-- Generator: Sketch 47.1 (45422) - http://www.bohemiancoding.com/sketch -->
    <title>logo/hover/adidas-performance</title>
    <desc>Created with Sketch.</desc>
    <defs></defs>
    <g id="Symbols" stroke="none" stroke-width="1" fill="none" fill-rule="evenodd">
        <g id="logo/hover/adidas-performance">
            <g id="Adidas">
                <rect id="Rectangle" x="0" y="0" width="100" height="100"></rect>
                <g transform="translate(5.000000, 19.000000)" id="Shape" fill-rule="nonzero" fill="#E6001C">
                    <path d="M81.9010795,44.709231 C77.7992327,44.709231 75.366369,46.8082982 75.1802132,49.8317252 L79.1023233,49.8317252 C79.1023233,48.8239162 79.6607908,47.4823105 82.0872353,47.3988613 C83.7690567,47.3988613 84.6998357,48.4066703 84.6998357,49.1641318 C84.5136798,50.3388392 83.0180143,50.4222883 81.528768,50.679055 C79.8469465,50.9229832 78.543856,51.263199 77.6066578,51.6804448 C76.3035672,52.3544572 75.5525248,53.785931 75.5525248,55.294435 C75.5525248,57.9840653 77.7992327,60.0831325 81.7149237,60.0831325 C85.450878,60.0831325 87.8773227,58.1509637 88.0570593,55.2109858 L84.3275242,55.2109858 C84.3275242,55.9620282 84.1413683,57.2266038 81.9010795,57.2266038 C80.405414,57.2266038 79.474635,56.9762563 79.2884792,55.8849982 C79.2884792,54.3700752 82.459547,54.4535243 84.8859915,53.8693802 C87.1262803,53.278817 88.6219458,51.8537622 88.6219458,49.8317252 C88.6219458,46.1342857 85.6370338,44.709231 81.9010795,44.709231" transform="translate(81.901079, 52.396182) scale(-1, 1) rotate(-180.000000) translate(-81.901079, -52.396182) "></path>
                    <polyline transform="translate(20.322425, 33.722871) scale(-1, 1) rotate(-180.000000) translate(-20.322425, -33.722871) " points="10.430491 32.169433 23.307337 39.647761 30.2143592 27.7979813 12.8569356 27.7979813"></polyline>
                    <polygon points="39.3925473 59.63727 39.3925473 44.6806143 35.6244972 44.6806143 35.6244972 59.63727"></polygon>
                    <path d="M4.45384732,52.463583 C4.45384732,50.1141683 6.50798028,48.1819995 8.7418499,48.1819995 C11.1747136,48.1819995 13.0362716,50.1141683 13.0362716,52.463583 C13.0362716,54.7295483 11.1747136,56.7451663 8.7418499,56.7451663 C6.50798028,56.7451663 4.45384732,54.7295483 4.45384732,52.463583 M8.5556941,44.7349077 C4.45384732,44.7349077 0.910467937,48.1819995 0.910467937,52.463583 C0.910467937,56.7451663 4.45384732,60.1088092 8.5556941,60.1088092 C10.2375155,60.1088092 11.733181,59.6851442 13.0362716,58.7672035 L13.0362716,59.9419108 L16.772226,59.9419108 L16.772226,45.0751235 L13.0362716,45.0751235 L13.0362716,45.9994833 C11.9193368,45.1585727 10.2375155,44.7349077 8.5556941,44.7349077" transform="translate(8.841347, 52.421858) scale(-1, 1) rotate(-180.000000) translate(-8.841347, -52.421858) "></path>
                    <polyline transform="translate(58.116794, 20.239305) scale(-1, 1) rotate(-180.000000) translate(-58.116794, -20.239305) " points="58.396028 0.834168 40.480137 32.0826659 53.356983 39.6444429 75.7534515 0.834168"></polyline>
                    <path d="M21.6251152,47.5079863 C21.6251152,45.1585718 23.4930923,43.226403 25.9195368,43.226403 C28.1534065,43.226403 30.2139587,45.1585718 30.2139587,47.5079863 C30.2139587,49.7739518 28.1534065,51.7895698 25.9195368,51.7895698 C23.4930923,51.7895698 21.6251152,49.7739518 21.6251152,47.5079863 M25.733381,39.779311 C21.4389593,39.779311 18.0817358,43.226403 18.0817358,47.5079863 C18.0817358,51.7895698 21.4389593,55.1532125 25.733381,55.1532125 C27.4087833,55.1532125 28.9044488,54.7295475 30.2139587,53.8116068 L30.2139587,60.1088083 L33.9434938,60.1088083 L33.9434938,40.1195268 L30.2139587,40.1195268 L30.2139587,41.0438867 C28.9044488,40.202976 27.4087833,39.779311 25.733381,39.779311" transform="translate(26.012615, 49.944060) scale(-1, 1) rotate(-180.000000) translate(-26.012615, -49.944060) "></path>
                    <polyline transform="translate(39.267130, 28.936325) scale(-1, 1) rotate(-180.000000) translate(-39.267130, -28.936325) " points="25.5493728 35.9524729 38.6123747 43.3409324 52.9848863 18.2291569 39.3569978 18.2291569 39.3569978 14.5317175 35.6274627 14.5317175 35.6274627 18.2291569"></polyline>
                    <path d="M86.2019205,39.7600532 C85.2647223,39.7600532 84.3339433,40.6009638 84.3339433,41.6087728 C84.3339433,42.6165818 85.2647223,43.4574925 86.2019205,43.4574925 C87.3188552,43.4574925 88.0698977,42.6165818 88.0698977,41.6087728 C88.0698977,40.6009638 87.3188552,39.7600532 86.2019205,39.7600532 M86.2019205,43.200726 C85.2647223,43.200726 84.7062548,42.4496835 84.7062548,41.6087728 C84.7062548,40.7678622 85.2647223,40.0104007 86.2019205,40.0104007 C87.1326995,40.0104007 87.6911668,40.7678622 87.6911668,41.6087728 C87.6911668,42.4496835 87.1326995,43.200726 86.2019205,43.200726" transform="translate(86.201920, 41.608773) scale(-1, 1) rotate(-180.000000) translate(-86.201920, -41.608773) "></path>
                    <path d="M86.5870703,40.6073847 L86.2147588,41.4482953 L85.8424472,41.4482953 L85.8424472,40.6073847 L85.5600038,40.6073847 L85.5600038,42.6230027 L86.4009145,42.6230027 C86.5870703,42.6230027 86.959382,42.366236 86.959382,42.0324395 C86.959382,41.6986428 86.7732262,41.5317445 86.5870703,41.4482953 L86.959382,40.6073847 M86.2147588,42.366236 L85.8424472,42.366236 L85.8424472,41.6986428 L86.2147588,41.6986428 C86.5870703,41.6986428 86.5870703,41.782092 86.5870703,42.0324395 C86.5870703,42.205757 86.5870703,42.366236 86.2147588,42.366236" transform="translate(86.393337, 41.615194) scale(-1, 1) rotate(-180.000000) translate(-86.393337, -41.615194) "></path>
                    <path d="M61.5523248,52.463583 C61.5523248,50.1141683 63.420302,48.1819995 65.8467465,48.1819995 C68.0870353,48.1819995 70.1347492,50.1141683 70.1347492,52.463583 C70.1347492,54.7295483 68.0870353,56.7451663 65.8467465,56.7451663 C63.420302,56.7451663 61.5523248,54.7295483 61.5523248,52.463583 M65.6541715,44.7349077 C61.366169,44.7349077 58.0089453,48.1819995 58.0089453,52.463583 C58.0089453,56.7451663 61.366169,60.1088092 65.6541715,60.1088092 C67.335993,60.1088092 68.8316585,59.6851442 70.1347492,58.7672035 L70.1347492,59.9419108 L73.6845477,59.9419108 L73.6845477,45.0751235 L70.1347492,45.0751235 L70.1347492,45.9994833 C68.8316585,45.1585727 67.335993,44.7349077 65.6541715,44.7349077" transform="translate(65.846747, 52.421858) scale(-1, 1) rotate(-180.000000) translate(-65.846747, -52.421858) "></path>
                    <path d="M44.3938953,47.5079863 C44.3938953,45.1585718 46.4480283,43.226403 48.688317,43.226403 C51.1147617,43.226403 52.9827388,45.1585718 52.9827388,47.5079863 C52.9827388,49.7739518 51.1147617,51.7895698 48.688317,51.7895698 C46.4480283,51.7895698 44.3938953,49.7739518 44.3938953,47.5079863 L44.3938953,47.5079863 Z M52.9827388,60.1088083 L56.712274,60.1088083 L56.712274,40.1195268 L52.9827388,40.1195268 L52.9827388,41.0438867 C51.8593848,40.202976 50.3637192,39.779311 48.688317,39.779311 C44.3938953,39.779311 40.8505158,43.226403 40.8505158,47.5079863 C40.8505158,51.7895698 44.3938953,55.1532125 48.688317,55.1532125 C50.3637192,55.1532125 51.8593848,54.7295475 52.9827388,53.8116068 L52.9827388,60.1088083 Z" transform="translate(48.781395, 49.944060) scale(-1, 1) rotate(-180.000000) translate(-48.781395, -49.944060) "></path>
                </g>
            </g>
        </g>
    </g>
</svg>