<?xml version="1.0" encoding="UTF-8" standalone="no"?>
<svg width="100px" height="100px" viewBox="0 0 100 100" version="1.1" xmlns="http://www.w3.org/2000/svg" xmlns:xlink="http://www.w3.org/1999/xlink">
    <!-- Generator: Sketch 50.2 (55047) - http://www.bohemiancoding.com/sketch -->
    <title>ADIDAS PERFORMANCE</title>
    <desc>Created with Sketch.</desc>
    <defs></defs>
    <g id="ADIDAS-PERFORMANCE" stroke="none" stroke-width="1" fill="none" fill-rule="evenodd">
        <g id="ADI-PERFORMANCE" transform="translate(0.000000, 16.408669)" fill="#000000" fill-rule="nonzero">
            <path d="M65.5727554,43.9907121 L85.2321981,43.9907121 L59.8111455,0 L45.1145511,8.47368421 L65.5727554,43.9907121 Z M43.8575851,48.1950464 L43.8575851,43.9907121 L59.3157895,43.9907121 L42.8328173,15.4582043 L28.1021672,23.8978328 L39.6532508,43.9907121 L39.6532508,48.1950464 L43.8575851,48.1950464 Z M10.9226006,39.0092879 L13.7708978,44.006192 L33.3993808,44.006192 L25.619195,30.5510836 L10.9226006,39.0092879 Z M59.3157895,44.006192 L59.3157895,51.126935 C55.6809573,48.609755 50.7385991,49.2047406 47.805021,52.5126583 C44.871443,55.820576 44.871443,60.7986191 47.805021,64.1065368 C50.7385991,67.4144545 55.6809573,68.00944 59.3157895,65.4922601 L59.3157895,66.6842105 L63.5201238,66.6842105 L63.5201238,43.9907121 L59.3157895,44.006192 Z M33.3993808,44.006192 L33.3993808,51.126935 C29.7645487,48.609755 24.8221904,49.2047406 21.8886124,52.5126583 C18.9550343,55.820576 18.9550343,60.7986191 21.8886124,64.1065368 C24.8221904,67.4144545 29.7645487,68.00944 33.3993808,65.4922601 L33.3993808,66.6842105 L37.6006192,66.6842105 L37.6006192,43.9907121 L33.3993808,44.006192 Z M84.7368421,61.1702786 C84.869969,64.5758514 87.7832817,66.993808 92.6470588,66.993808 C96.619195,66.993808 99.8978328,65.2724458 99.8978328,61.4674923 C99.8978328,58.8204334 98.4086687,57.2631579 94.9659443,56.6006192 L92.2848297,56.0712074 C90.5634675,55.7399381 89.371517,55.4086687 89.371517,54.3839009 C89.371517,53.2600619 90.5294118,52.7616099 91.9845201,52.7616099 C94.1052632,52.7616099 94.9659443,53.8204334 95.0309598,55.0804954 L99.2693498,55.0804954 C99.0371517,51.7678019 96.3869969,49.5510836 92.1176471,49.5510836 C87.7151703,49.5510836 85.1021672,51.9690402 85.1021672,55.123839 C85.1021672,58.9628483 88.2136223,59.5944272 90.8947368,60.0773994 L93.1114551,60.4736842 C94.6996904,60.7832817 95.3962848,61.2352941 95.3962848,62.1609907 C95.3962848,62.9907121 94.6006192,63.8173375 92.7151703,63.8173375 C89.9659443,63.8173375 89.0743034,62.3931889 89.0402477,61.1702786 L84.7368421,61.1702786 Z M78.9783282,66.6656347 L83.1826625,66.6656347 L83.1826625,49.749226 L78.9783282,49.749226 L78.9783282,51.1083591 C75.343496,48.5911791 70.4011378,49.1861647 67.4675597,52.4940824 C64.5339817,55.8020001 64.5339817,60.7800432 67.4675597,64.0879609 C70.4011378,67.3958786 75.343496,67.9908642 78.9783282,65.4736842 L78.9783282,66.6656347 Z M13.7368421,66.6656347 L17.9566563,66.6656347 L17.9566563,49.749226 L13.7368421,49.749226 L13.7368421,51.1083591 C10.10201,48.5911791 5.15965173,49.1861647 2.22607368,52.4940824 C-0.707504364,55.8020001 -0.707504364,60.7800432 2.22607368,64.0879609 C5.15965173,67.3958786 10.10201,67.9908642 13.7368421,65.4736842 L13.7368421,66.6656347 Z M43.8575851,66.6656347 L43.8575851,49.749226 L39.6532508,49.749226 L39.6532508,66.6656347 L43.8575851,66.6656347 Z M4.10526316,58.2910217 C4.10526316,55.6219304 6.26898918,53.4582043 8.9380805,53.4582043 C11.6071718,53.4582043 13.7708978,55.6219304 13.7708978,58.2910217 C13.7708978,60.960113 11.6071718,63.123839 8.9380805,63.123839 C7.65507617,63.1279684 6.42342944,62.6201242 5.51620368,61.7128985 C4.60897793,60.8056727 4.10113373,59.574026 4.10526316,58.2910217 Z M23.7647059,58.2910217 C23.7647059,55.6219304 25.9284319,53.4582043 28.5975232,53.4582043 C31.2666145,53.4582043 33.4303406,55.6219304 33.4303406,58.2910217 C33.4303406,60.960113 31.2666145,63.123839 28.5975232,63.123839 C27.3145189,63.1279684 26.0828722,62.6201242 25.1756464,61.7128985 C24.2684207,60.8056727 23.7605765,59.574026 23.7647059,58.2910217 Z M69.3436533,58.2910217 C69.3436533,55.6219304 71.5073793,53.4582043 74.1764706,53.4582043 C76.8455619,53.4582043 79.0092879,55.6219304 79.0092879,58.2910217 C79.0092879,60.960113 76.8455619,63.123839 74.1764706,63.123839 C72.8945379,63.1263172 71.6644866,62.6177441 70.7586029,61.7106983 C69.8527192,60.8036524 69.3457235,59.5729501 69.3498452,58.2910217 L69.3436533,58.2910217 Z M49.6842105,58.2910217 C49.6842105,55.6219304 51.8479365,53.4582043 54.5170279,53.4582043 C57.1861192,53.4582043 59.3498452,55.6219304 59.3498452,58.2910217 C59.3498452,60.960113 57.1861192,63.123839 54.5170279,63.123839 C53.2340235,63.1279684 52.0023768,62.6201242 51.095151,61.7128985 C50.1879253,60.8056727 49.6800811,59.574026 49.6842105,58.2910217 Z" id="Shape"></path>
        </g>
    </g>
</svg>