<?xml version="1.0" encoding="UTF-8"?>
<svg width="100px" height="100px" viewBox="0 0 100 100" version="1.1" xmlns="http://www.w3.org/2000/svg" xmlns:xlink="http://www.w3.org/1999/xlink">
    <!-- Generator: Sketch 47.1 (45422) - http://www.bohemiancoding.com/sketch -->
    <title>logo/hover/columbia</title>
    <desc>Created with Sketch.</desc>
    <defs></defs>
    <g id="Symbols" stroke="none" stroke-width="1" fill="none" fill-rule="evenodd">
        <g id="logo/hover/columbia" fill-rule="nonzero" fill="#E6001C">
            <g id="Brand-Icons/converse" transform="translate(0.000000, 41.000000)">
                <g id="Columbia" transform="translate(0.000000, 0.011236)">
                    <path d="M5.53547634,10.6011126 C6.01697544,11.0806793 6.01697544,11.8600958 5.53547634,12.3396626 L5.13127474,12.7451525 C4.65203016,13.2256853 3.87229147,13.2256853 3.39143652,12.7451525 L0.609048051,9.96308604 C0.129803458,9.48223109 0.129803458,8.7024924 0.609048051,8.22260366 L1.01421586,7.81840208 C1.49539289,7.33690298 2.27416535,7.33690298 2.7550203,7.81840208 L5.53547634,10.6011126 Z M5.25978187,5.31170809 C4.77828276,4.83278556 3.99886616,4.83278556 3.51801119,5.31170809 L3.11477583,5.71816418 C2.63392087,6.19773085 2.63392087,6.97746953 3.11477583,7.45800242 L5.89684221,10.2397467 C6.37673096,10.7202796 7.15550342,10.7202796 7.63668045,10.2397467 L8.04184826,9.83425685 C8.521737,9.35469019 8.521737,8.57591773 8.04184826,8.09570691 L5.25978187,5.31170809 Z M12.6761563,7.76654833 C12.1956235,7.28601545 11.4165289,7.28601545 10.9353519,7.76654833 L10.5311503,8.17203821 C10.0509395,8.65096073 10.0509395,9.43102148 10.5311503,9.91058815 L13.3141829,12.6929766 C13.7950379,13.1735096 14.5744545,13.1735096 15.0540211,12.6929766 L15.4585448,12.2884529 C15.9393998,11.807598 15.9393998,11.0291476 15.4585448,10.5486147 L12.6761563,7.76654833 Z M15.1818842,5.26114263 C14.7007071,4.78093182 13.9216126,4.78093182 13.4391472,5.26114263 L13.0362339,5.66631044 C12.5547348,6.14684331 12.5547348,6.92690408 13.0362339,7.40614866 L15.8183003,10.1885371 C16.2991553,10.6687479 17.0782498,10.6687479 17.5591048,10.1885371 L17.9626622,9.78433554 C18.4435172,9.30348058 18.4435172,8.52470812 17.9626622,8.04320902 L15.1818842,5.26114263 Z M10.5565941,2.50484208 C11.037449,2.02430919 11.037449,1.2458588 10.5565941,0.765003843 L10.1523925,0.360158109 C9.67250375,-0.120052703 8.89340921,-0.120052703 8.41094389,0.360158109 L5.63016579,3.14190243 C5.14963291,3.62179117 5.14963291,4.4008857 5.63016579,4.88302896 L6.03307909,5.28626431 C6.51425611,5.76583099 7.29496102,5.76583099 7.77323939,5.28626431 L10.5565941,2.50484208 Z M13.0619998,5.00928156 C13.5412444,4.52939282 13.5412444,3.74868792 13.0619998,3.26944333 L12.6558657,2.86363137 C12.175977,2.38470885 11.3972046,2.38470885 10.9160275,2.86363137 L8.13557149,5.6476302 C7.65568275,6.12719687 7.65568275,6.90661347 8.13557149,7.38746844 L8.53751857,7.79167002 C9.01837353,8.27188083 9.79907843,8.27188083 10.2799334,7.79167002 L13.0619998,5.00928156 Z M10.560781,12.2820115 C11.0397035,11.8001903 11.0397035,11.0230282 10.560781,10.5418512 L10.1562574,10.1376496 C9.67475826,9.65711672 8.89566372,9.65711672 8.41641913,10.1376496 L5.63113201,12.9193939 C5.15317571,13.3992827 5.15317571,14.1796655 5.63113201,14.6601983 L6.03726603,15.0640779 C6.51812099,15.5442887 7.29753761,15.5442887 7.77710427,15.0640779 L10.560781,12.2820115 Z M13.0645764,14.7877392 C13.5457534,14.3068843 13.5457534,13.5274678 13.0645764,13.0466127 L12.661341,12.6427333 C12.1801639,12.1618783 11.4010694,12.1618783 10.9198924,12.6427333 L8.13814808,15.4247997 C7.65729312,15.9059766 7.65729312,16.6844271 8.13814808,17.1649599 L8.54267174,17.5691615 C9.0235267,18.0496944 9.80165501,18.0496944 10.2808996,17.5691615 L13.0645764,14.7877392 Z M33.3075072,12.3312887 C33.3812619,12.4407935 33.7590536,13.0202028 33.7590536,13.0202028 C33.5522827,13.9030048 33.0086235,15.0360575 33.0086235,15.0360575 L32.9258508,15.0676207 C30.865872,15.8811771 27.6911987,16.5613952 24.2717498,15.1806683 C22.2243319,14.34972 20.7704945,12.747407 20.1804567,10.664561 C19.5675519,8.50248509 19.9978413,6.13299418 21.3280028,4.32552063 C22.798266,2.33188889 25.1741983,1.23619661 28.3971826,1.06646415 C29.6126861,1.00204956 32.1177697,1.33217436 33.4736969,2.09741975 L33.5870665,2.16280057 C33.5870665,2.16280057 33.637632,5.54295648 33.6038144,5.68949969 L33.5658098,5.85536727 C33.5658098,5.85536727 32.5622303,5.88982908 32.5641628,5.89143945 L32.5084442,5.58321561 C32.3406442,4.60314753 31.8923185,1.97116715 28.2232631,2.16280057 C26.6512249,2.24267467 25.3854782,3.03271969 24.4427706,4.27527724 C23.2916817,5.78740988 22.9399781,7.88442704 23.451752,10.1766204 C23.9493547,12.412129 25.6460352,13.8472862 26.9481763,14.34972 C27.4937679,14.5626102 29.2303854,14.9539289 30.5460535,14.3561615 C31.6942437,13.8350474 32.7809179,12.9957252 33.3075072,12.3312887 L33.3075072,12.3312887 Z M45.7707653,15.9307763 L45.7736639,4.25176591 C45.7736639,3.87751711 45.7736639,3.25172931 45.3730052,2.82916956 C45.3172865,2.77119643 44.7845779,2.34638217 44.7845779,2.34638217 L44.7845779,1.82977711 L47.927366,1.19915821 L48.2098239,1.3804853 C48.2098239,1.3804853 48.1972631,13.7387475 48.2020942,13.9059035 C48.2442857,15.1062694 49.0639615,15.1874318 49.0639615,15.1874318 L49.0639615,15.9307763 L45.7707653,15.9307763 Z M59.6962347,15.1429857 C59.1322848,15.0080372 58.845962,14.5410313 58.845962,13.7516304 L58.8517593,6.34556235 L58.5693013,6.16584563 L55.4194276,6.79646452 L55.4194276,7.31306957 C55.4194276,7.31306957 55.9601881,7.74110456 56.0136522,7.79617904 C56.414311,8.22002708 56.4155993,8.84452658 56.4155993,9.2174871 L56.4127007,13.630531 C55.3856099,14.4154229 54.4322739,14.689507 53.7874838,14.3828935 C53.2647593,14.1345753 52.9703846,13.5181276 52.9539589,12.6459539 L52.9539589,6.34556235 L52.6743996,6.16584563 L49.5216272,6.79646452 L49.5216272,7.31306957 C49.5216272,7.31306957 50.0614215,7.73917212 50.1168181,7.79617904 C50.5232742,8.22550233 50.5219858,8.85708744 50.5190872,9.23262453 L50.5190872,12.994759 C50.544531,13.7194231 50.5815693,13.9680635 50.659511,14.2865937 C50.8562976,15.0966073 51.3291008,15.6605571 52.0286433,15.9214362 C53.1404392,16.3346557 54.724072,15.9317425 56.4130227,14.8151155 L56.4130227,15.8376972 L59.8672554,15.8360869 L59.8672554,15.183567 L59.6962347,15.1429857 Z M75.3431842,15.1429857 C74.8024236,15.0144787 74.5161007,14.5442521 74.4954881,13.7516304 L74.4922673,9.21716502 C74.4922673,8.17590309 73.9479639,6.20417231 71.8960371,6.20417231 C70.3719878,6.20417231 69.332014,7.10919738 68.8347334,7.60776635 C68.5039644,6.90790176 67.8620729,6.20417231 66.6095311,6.20417231 C65.6468551,6.20417231 64.7315236,6.57069136 63.8867262,7.29535556 L63.8883365,6.34652856 L63.6074889,6.16552355 L60.4560048,6.79614245 L60.4560048,7.31274751 C60.4560048,7.31274751 60.9970874,7.74078249 61.0528061,7.79585697 C61.4521765,8.21873879 61.4534648,8.84420452 61.4534648,9.21619881 L61.4550752,15.8373751 L64.8851525,15.8357647 L64.8851525,15.1832448 L64.7147758,15.1429857 C64.1769139,15.0148007 63.9070167,14.5581012 63.8870483,13.7455111 C63.8870483,13.7500201 63.8851158,9.18109285 63.8844717,8.45481828 C64.4873922,7.94723127 65.0925674,7.84094719 65.7328485,7.89537752 C66.2533184,7.94175603 66.7905362,8.30279984 66.8037411,10.1798412 C66.8037411,10.1766204 66.7992321,15.8373751 66.7992321,15.8373751 L70.227699,15.8357647 L70.227699,15.1832448 L70.0573224,15.1429857 C69.5107646,15.0128683 69.2353921,14.5555246 69.2154236,13.7455111 C69.2154236,13.7516304 69.2128471,9.21716502 69.2128471,9.21716502 C69.2128471,9.09799802 69.1896578,8.71891812 69.1487545,8.47575303 C69.7639139,7.9469092 70.3623255,7.8396589 71.0193544,7.89537752 C71.5411126,7.94175603 72.07672,8.30279984 72.0899249,10.179197 L72.0899249,15.8373751 L75.5138828,15.8357647 L75.5138828,15.1832448 L75.3431842,15.1429857 Z M44.6402891,11.0455733 C44.6412554,9.59366834 44.1726392,8.35368737 43.2782425,7.45929071 C42.3506724,6.53461918 41.0304952,6.04635655 39.4581349,6.04635655 C36.4989284,6.04957728 34.2708275,8.19748198 34.2717937,11.0455733 C34.273404,14.0785346 36.3085833,16.0425356 39.4581349,16.0428576 C40.9696234,16.0464004 42.2717645,15.5442887 43.2241343,14.592241 C44.1401098,13.678842 44.6402891,12.4198588 44.6402891,11.0455733 L44.6402891,11.0455733 Z M39.4597453,14.9780844 C37.5379358,14.9780844 37.0020064,13.466918 36.9981415,11.0314021 C36.9981415,9.24196464 37.5363254,7.08568606 39.4597453,7.08568606 C41.3831651,7.08568606 41.9226373,9.24196464 41.9223153,11.0314021 C41.9203828,13.466918 41.3796222,14.9780844 39.4597453,14.9780844 L39.4597453,14.9780844 Z M86.9552033,3.14995425 C86.9552033,2.44815722 87.5291373,1.8764777 88.2331889,1.8764777 C88.9359521,1.8764777 89.5082758,2.44815722 89.5082758,3.14995425 C89.5082758,3.85271749 88.9359521,4.4224646 88.2331889,4.4224646 C87.5291373,4.4224646 86.9552033,3.85271749 86.9552033,3.14995425 L86.9552033,3.14995425 Z M87.1233254,15.8373751 L87.1268682,9.15468287 C87.1281565,8.76272006 87.1297669,8.17203821 86.7403807,7.75785236 C86.6827296,7.70084544 86.1432573,7.27442082 86.1432573,7.27442082 L86.1432573,6.75781576 L89.2915207,6.12816309 L89.5739787,6.30852396 C89.5739787,6.30852396 89.5659269,13.7516304 89.5659269,13.7455111 C89.5862174,14.5593896 89.8545043,15.015767 90.3827039,15.1429857 L90.5534026,15.1832448 L90.5534026,15.8357647 L87.1233254,15.8373751 Z M85.3284127,8.47800754 C84.6639762,7.28601545 83.789226,6.55072283 82.7221981,6.29113201 C81.2454935,5.93234272 79.7629916,6.57938733 78.8473381,7.1256231 L78.8544237,1.3804853 L78.5738982,1.19915821 L75.4285335,1.82977711 L75.4285335,2.34638217 C75.4285335,2.34638217 75.9686499,2.77119643 76.0234022,2.82916956 C76.4127885,3.23949054 76.4115002,3.82952824 76.4089236,4.21955862 L76.401838,15.0260733 L76.401838,15.1619881 L76.5216491,15.2238261 C78.3143073,16.1494638 80.682832,16.2863448 82.4139743,15.5658675 C84.3515654,14.7613293 85.1731735,13.3925191 85.524233,12.3882956 C86.0508224,10.8716539 85.8070131,9.33214508 85.3284127,8.47800754 L85.3284127,8.47800754 Z M82.7089931,13.647923 C82.1637236,14.5751711 81.0506394,15.1088461 80.1736347,14.8656809 C79.2959858,14.6218717 78.8215722,13.692047 78.8357435,12.2494821 C78.8357435,12.2478718 78.8367098,8.96143908 78.8367098,8.24160598 C78.8685949,8.22614647 78.8982256,8.21068697 78.935264,8.19329502 C79.4624975,7.92243165 80.4467526,7.41774329 81.7633869,8.0886213 C82.474524,8.44902097 83.0036899,9.12440801 83.2552289,9.98949603 C83.5943718,11.1508912 83.3940424,12.4845954 82.7089931,13.647923 L82.7089931,13.647923 Z M99.0806069,14.8025546 L98.9008901,14.7697031 C98.7578897,14.742327 98.5018417,14.3996413 98.5018417,13.8096036 L98.5018417,9.41588406 C98.5018417,8.14433993 98.0915207,7.14720199 97.3504308,6.60869597 C96.6721451,6.11463602 95.7387775,6.04023716 94.6514592,6.39322915 C93.3705749,6.80805915 91.4184907,8.51407971 91.1096227,8.89380375 L91.0397328,8.97883102 L91.066787,9.08608133 C91.093197,9.19751857 91.239096,9.42296966 91.3395828,9.50638656 L91.4027091,9.55952861 L93.5370867,9.55920653 C93.5370867,9.55920653 93.5325776,9.05097537 93.5325776,8.96047287 C93.5325776,8.08314607 94.1087663,7.66606156 94.5915536,7.57491491 C95.0807825,7.4844124 95.4131618,7.53014676 95.6447322,7.7227464 C95.9738909,7.99747465 96.1423351,8.61070161 96.1423351,9.54825604 L96.1397584,10.104154 L91.6300926,12.107448 L91.5428108,12.1470629 L91.5112476,12.2382096 C91.0954515,13.4991253 91.1865981,14.4685649 91.7798565,15.121729 C92.7129019,16.1510742 94.9880255,16.2937525 98.3056992,15.5458991 C98.5572382,15.4808403 99.0825392,15.4247997 99.0825392,15.4247997 C99.0806069,15.4247997 99.0806069,14.8025546 99.0806069,14.8025546 L99.0806069,14.8025546 Z M96.1503869,11.1856751 L96.151353,14.5742048 C95.4076865,15.095319 94.6579007,15.148461 94.1316334,14.7104418 C93.5551228,14.2331296 93.4295143,13.3306811 93.8137474,12.49619 L96.1503869,11.1856751 Z" id="Shape"></path>
                </g>
            </g>
        </g>
    </g>
</svg>