<?xml version="1.0" encoding="UTF-8"?>
<svg width="100px" height="100px" viewBox="0 0 100 100" version="1.1" xmlns="http://www.w3.org/2000/svg" xmlns:xlink="http://www.w3.org/1999/xlink">
    <!-- Generator: Sketch 52.6 (67491) - http://www.bohemiancoding.com/sketch -->
    <title>JORDAN_SALE_LOGO</title>
    <desc>Created with Sketch.</desc>
    <g id="JORDAN_SALE_LOGO" stroke="none" stroke-width="1" fill="none" fill-rule="evenodd">
        <g id="Brand-Icons/jordan" transform="translate(-5.166016, -5.166016)">
            <g id="Jordan">
                <rect id="Rectangle" x="0" y="0" width="110" height="110"></rect>
                <g id="Jumpman_logo" transform="translate(11.000000, 13.750000)" fill="#DC1915" fill-rule="nonzero">
                    <path d="M47.8039524,5.6231147 C47.7702188,5.44328935 47.7471187,5.2571996 47.734652,5.06889888 C47.5538843,2.45885195 49.5089623,0.195558386 52.1060773,0.0116796022 C54.7053924,-0.170356708 56.9571055,1.79703572 57.1382398,4.40708266 C57.3193742,7.0171296 55.3639295,9.28042316 52.7671812,9.46430195 C52.6029135,9.47683076 52.4404793,9.47904173 52.2809783,9.47277732 C52.1757444,9.50004592 52.1126774,9.51294323 52.0221102,9.59327504 C51.7548086,10.0118849 52.7019141,9.93376401 52.0580437,11.7633395 C52.0580437,11.7633395 52.0536437,11.964169 51.9821433,12.1649985 C51.931543,12.8673492 51.6624081,14.9486064 51.6242745,16.057038 C51.761042,16.2177017 51.7991755,16.2958225 51.7845088,16.6853213 C51.7232751,17.2119 51.6033744,18.5023679 51.4097733,19.3292697 C51.2458723,20.0378847 50.9576707,20.1731222 50.725936,20.3466832 C50.3996008,21.8147655 50.3134336,23.0307975 49.4759621,24.8139427 C49.4000616,26.1655807 49.3054611,26.5337068 49.0234928,27.1936805 C48.9919593,29.1839196 49.1287267,29.4801892 47.7925856,32.6315547 C47.4475503,34.1055329 47.7757189,35.1251573 48.139821,36.6566207 C48.5123565,38.2304609 49.5456291,38.8882237 49.6992634,40.5000189 C50.0611655,44.2955128 49.9705983,46.8801336 49.1602602,49.8560957 L49.8675643,51.5397473 C50.7453694,51.9439858 52.9233821,53.0502065 51.7155751,54.8012926 C53.4161849,55.7000508 55.9857998,56.6540832 58.1051454,58.4755518 C58.9576504,59.1885888 59.8581889,59.9668493 60.666327,60.8803473 C62.2048692,61.1213427 62.0406016,61.2440514 63.1813082,61.9482445 C66.5341277,64.0143935 71.9113255,68.1135269 75.0283769,71.0154216 C75.56518,71.3304844 75.7840813,71.5571086 76.2174838,71.7855752 C76.2849509,71.9163908 76.303651,71.9462388 76.2889842,71.9819828 C76.13975,72.3607952 76.1456167,72.3714815 76.0110493,72.6736471 C76.1793503,72.8601053 76.4928521,73.0351402 76.6802198,73.1983833 C76.8551208,73.253289 76.8551208,73.1689037 77.1561559,73.0948363 C77.5473915,73.4629624 78.031761,73.759232 78.2059287,73.7422813 C78.7364984,73.6066753 78.6459312,73.7168552 79.0943672,73.2131231 C79.2560681,73.0461951 79.5259363,73.2153341 79.5259363,73.2153341 C79.6942373,73.0167155 80.0561394,72.6209523 80.5383089,72.3353691 C80.9233111,72.1069024 81.6581154,72.0818448 81.6581154,72.0818448 C81.9041501,72.0840558 81.8579499,72.33758 81.8366831,72.4201228 C81.5591148,72.5642042 80.969878,72.7226568 80.6391428,72.9677057 C79.919372,73.7164867 79.3554353,74.7257932 79.3554353,74.7257932 C80.8052438,74.5268062 81.6958823,74.8882993 82.9036893,74.7490084 C83.5625931,74.7110535 84.0487959,74.7534303 84.7410666,74.2500668 C84.7410666,74.2500668 85.4062038,73.7743403 86.0016739,73.52229 C86.5806439,73.2687658 87.1299138,73.4040033 87.6392167,73.7761828 C87.9989188,74.1841063 88.2156201,74.1863172 87.6685502,74.7619057 C87.4709157,74.9859504 87.1845474,75.2354212 86.8204453,75.5972829 C86.1806083,76.232199 85.3196699,77.0797365 84.4275648,77.7802446 C83.5244595,78.4888597 82.4996203,79.1252497 81.8597832,79.4170974 C80.2457072,80.5826457 80.6266761,80.2779007 79.3576354,81.4331312 C79.1974011,81.576844 78.772432,81.8347902 78.5663641,81.9722387 C78.0654945,82.3024098 77.9096603,82.0271444 77.5833251,81.4224448 C77.5833251,81.4224448 77.4337242,81.1961892 77.1876894,80.7138298 C76.9181879,80.1872511 76.7161534,79.5847625 76.7979205,79.5950803 C76.4972521,79.5567569 75.1435109,77.9619124 75.1398442,77.619581 C74.8534759,77.553989 73.6328355,76.365594 73.5888352,76.1389699 L72.5071623,75.2674802 C71.2696551,75.5254264 70.9854868,74.7534303 67.7170012,72.4227023 C67.3444657,72.4160694 66.7680624,72.2133974 65.9426909,71.5980115 C64.4675823,70.4110905 60.9295952,67.7251337 60.329725,67.4181777 C59.6854879,67.0883751 58.9154835,66.7777342 58.4435807,66.3860245 C57.7366433,66.2552089 57.3494411,66.180773 56.9959723,66.081648 C56.6340702,65.9821544 56.305535,65.8531813 55.389963,65.7304726 C53.9001877,65.5443829 52.3550454,64.9245751 50.8839702,64.184638 C50.1876662,63.8526244 49.581196,63.6834854 48.9816925,63.4248022 C47.6367514,62.8540041 46.483578,62.3399542 45.5900062,62.1324918 C45.2490042,62.0985903 43.6283282,61.6099665 42.7783899,61.1110249 C42.4835882,60.9588366 42.3130872,60.8129128 42.1194861,60.768325 C41.6732502,60.664778 41.3868818,60.8423924 41.185214,60.9101954 C40.0951077,61.4813619 39.0743017,61.9740391 38.1312296,62.4840356 C37.2534245,62.9557086 36.4452865,63.4461749 35.5887482,63.9414316 C34.8161771,64.3898895 33.9237052,64.8125527 33.0062999,65.2529037 C33.0062999,65.2529037 30.3901181,66.5706402 28.9612098,67.0824792 C27.7215026,68.0998926 25.1874545,69.8594541 23.6408456,70.7309438 C22.8748745,71.0968589 21.3869325,72.0442584 20.7005285,72.2561427 C20.3089263,72.5730481 18.9137515,73.5735108 17.8214452,74.3985701 C16.9773736,75.0331177 16.3397366,75.5681718 16.3397366,75.5681718 C15.8495004,76.0099968 15.8828673,76.2196702 14.9507952,75.8216961 C14.691927,76.0354229 14.4920925,76.1684494 14.3256249,76.2911581 C13.652421,76.7819929 13.5952207,76.6637061 13.3491859,76.6508088 C12.8798498,77.0591008 12.8208162,76.8475849 12.4105138,77.3174155 C12.1410122,77.7363938 12.4167472,77.6365317 11.8484105,77.8399407 C11.7285098,77.8863711 11.6716762,78.0319264 11.5792756,78.1126267 C11.1224063,78.4910706 11.120573,79.5593363 10.0260666,79.6356147 C9.39246295,80.0899685 9.55453055,80.6382884 9.07052775,80.6147047 C9.10022792,81.0863778 8.21398945,81.7739886 8.05412185,81.7717776 C6.65858043,82.2559795 6.56177986,81.2241947 4.88647015,81.9939799 C4.66976889,82.0934734 4.35186705,82.3687388 3.93313129,82.4487021 C3.19649368,82.5883616 2.30622185,82.4420692 1.76318537,82.019406 C0.908480412,81.3572213 0.121609182,80.0796506 0.121609182,80.0796506 C-0.150092394,79.4344167 0.00794185626,79.0264932 0.856046775,78.4170032 C1.20951549,78.1907476 1.27478254,78.0216086 1.86841931,77.9810742 C2.16322102,77.8690518 2.08292056,78.0404018 2.60945694,77.8502586 C2.91452538,77.7400787 2.91452538,77.8185681 3.52906228,77.7658733 C3.66986309,77.6704332 3.86786424,77.6365317 4.13296578,77.5499355 C4.6191686,77.3892719 5.09290468,77.2094466 5.09290468,77.2094466 C5.09290468,77.2094466 5.21683873,77.0845269 5.68434144,77.1291147 C6.07997707,76.9662401 6.48624609,76.7248762 6.69451397,76.6508088 C6.64171366,76.0206831 6.70918072,76.0501627 6.9995824,75.7966384 C7.3614845,75.4834181 7.42675155,75.5342703 7.69625311,75.7288354 C7.80992044,75.6628749 7.86455409,75.6400282 7.85208735,75.5445881 C7.80772042,75.216628 7.52795213,75.0622288 7.61228596,74.3392425 C7.48798524,74.0496057 7.30501751,73.692166 7.34498441,73.4762282 C7.40401808,73.2433396 7.46085174,73.1313173 7.60165256,73.0572499 C7.75125343,72.9769181 7.79965371,73.084887 7.87958751,73.1755367 C8.02258834,73.3428332 8.13845567,73.8377214 8.13845567,73.8377214 C8.18905597,74.3963591 8.3613903,75.1197139 8.91066015,74.711422 C9.23479537,74.3812508 9.2978624,73.5016543 9.95859956,73.6899551 L10.4301356,74.1023005 C10.8301713,73.7238566 10.8492381,73.7238566 11.0890395,73.5716683 C11.0890395,73.5716683 10.7143039,73.1910134 11.0428392,72.8947438 C11.2679738,72.6935458 11.5393087,72.5498329 12.0214782,72.0125678 C13.3451525,70.5426431 14.0249565,69.8929871 15.4564314,68.7086456 C18.3124147,66.3480695 21.5618335,64.692055 23.6265455,63.8692066 C24.2997494,63.0102458 24.9546199,62.4394478 26.4487952,62.2953664 C28.2249388,59.2810809 31.6261586,56.5888597 32.4071631,56.1595636 C33.0426001,55.0024906 33.318335,55.1251993 34.1495732,54.8926793 C34.8081103,54.3620471 34.9577112,54.3620471 35.2525129,53.8078313 C35.5388812,52.6636557 34.5917758,49.6073619 37.0095898,49.4529626 C37.5232928,48.7233434 37.3949587,48.8987468 37.9673287,48.2092935 C37.5801264,47.2489967 37.4202588,46.4453101 37.3150249,45.7536458 C37.2959581,45.673314 36.3554526,45.0070758 36.6223875,44.1374287 C36.2227185,43.6594912 35.4754475,42.5440582 35.2418795,42.0215329 C35.1348122,42.0237439 35.0460784,41.9832095 34.9283777,41.9666272 C34.806277,41.9474655 34.6544761,41.9540984 34.4843418,41.9393586 C34.1077729,42.9162377 33.6974706,42.9884626 33.0279333,43.204032 C31.8325931,45.7643321 31.4116573,46.8477061 28.0295044,48.9647074 C26.6867632,50.4751665 26.2573941,52.1584497 26.2636275,52.133392 C26.0322594,52.6323337 26.1140266,53.3306308 26.2361273,53.7050213 C26.0593929,54.2592371 26.1055932,54.3141428 26.1055932,54.3141428 C26.1792936,54.5234477 26.3710614,54.8005556 26.6064628,54.8595148 C27.0127318,54.9674837 27.4190008,54.9505329 27.395534,55.4052552 C27.3409004,55.9742108 26.5980294,55.8809817 26.246394,55.8176006 C24.8930195,55.6016628 25.3205553,54.7154334 24.455217,55.0113345 C23.7922798,55.4472636 23.544045,56.7333096 22.4620054,56.566013 C22.3190046,56.4709415 22.3630048,56.1897801 22.4598054,55.9867396 C22.6116063,55.6694658 22.8807412,55.4070977 22.7208736,55.2884424 C22.0179695,55.5106446 20.6077613,55.9801067 20.6077613,55.9801067 C19.9448241,56.162143 19.2184533,55.8301294 19.8711237,55.3919894 C20.1743588,55.2737026 20.6077613,55.1255678 21.1423644,54.7810254 C21.1423644,54.7810254 21.4177327,54.404424 20.8897296,54.5927247 C20.3129596,54.8001871 19.4626547,54.9287917 18.8525178,54.8613572 C18.8525178,54.8613572 17.5875105,54.6944292 17.4254429,54.5945672 C17.2611752,54.4950736 17.111941,54.10189 17.5075767,54.1041009 C18.0084462,54.1085229 19.2628202,53.9600195 20.2352258,53.6998624 C20.7045619,53.5159836 21.5970337,52.9853514 22.0979033,52.7355121 C22.0979033,52.7355121 22.6409398,51.9403009 22.9397748,51.7836907 C23.4384444,51.2062597 23.8593802,50.8657708 24.3012161,50.2754425 C24.7327852,49.3807377 25.1790212,47.9638761 26.6079295,45.770228 C27.2686666,44.759079 28.089638,43.5813704 29.1229107,42.5285814 C29.1229107,42.5285814 29.3902123,40.8430873 30.7351534,39.6436376 C31.0321551,38.9412869 31.4824244,38.1143852 31.9264603,37.3486535 C32.0991613,37.0545948 32.2630622,36.7988596 32.4273299,36.5195407 C32.8442323,35.8617779 33.2820348,34.6372705 34.9067442,34.4445479 C34.9067442,34.4445479 35.6012149,33.9286555 35.8685165,33.5623719 C36.2854189,33.2049322 36.1904517,32.6488739 36.5292537,32.2571642 C36.0115173,31.7497472 34.687843,30.7957148 34.5591422,29.4695029 C34.4223748,28.0629592 34.9210443,26.9058863 35.7673159,26.0495049 C36.705988,25.1061588 37.6952604,24.6344858 38.8968341,24.7063423 C40.3972428,24.9303869 40.6814111,25.4296971 41.1591805,25.9245853 C41.6178832,26.3940473 41.7883842,26.0918818 41.9819853,26.6416757 C43.2407592,26.9781112 43.1710922,26.8299764 43.1604588,27.7607936 C43.3540599,28.0227933 43.6781951,28.2663682 43.6737951,28.8098976 C44.0969309,27.9277217 44.180898,27.7652156 45.3113379,26.7942324 C45.5786395,26.0052856 45.7597739,25.229236 45.9951752,24.4402892 C46.2151765,23.71067 46.4890781,22.9596781 46.7013793,22.3947759 C46.4762447,20.7999315 46.9389807,20.5357209 47.5557176,19.1376525 C47.4464503,18.9452984 47.4699171,18.8903927 47.5161174,18.5749613 C47.7559188,17.650777 48.1306543,16.4281121 48.3535889,15.6306898 C48.3535889,15.6306898 48.4272893,15.313416 48.7536245,15.2902009 C49.0355928,14.2812628 49.4587286,12.403046 49.5302291,12.0201802 C49.8206307,10.9648118 49.633263,10.6261653 49.4103284,10.0317836 C49.3388279,9.83721844 49.3721948,9.56011053 49.2482607,9.34417272 C48.896992,8.72878681 48.5182232,7.92915363 48.261555,7.35798707 C48.0950874,6.99428294 47.8318192,5.62348319 47.8318192,5.62348319 C47.6081512,4.92297504 47.8039524,5.6231147 47.8039524,5.6231147" id="Shape"></path>
                </g>
            </g>
        </g>
    </g>
</svg>