<?xml version="1.0" encoding="UTF-8"?>
<svg width="64px" height="60px" viewBox="0 0 64 60" version="1.1" xmlns="http://www.w3.org/2000/svg" xmlns:xlink="http://www.w3.org/1999/xlink">
    <!-- Generator: Sketch 48.2 (47327) - http://www.bohemiancoding.com/sketch -->
    <title>Brand Icons/jordan</title>
    <desc>Created with Sketch.</desc>
    <defs></defs>
    <g id="Desktop_MENS" stroke="none" stroke-width="1" fill="none" fill-rule="evenodd" transform="translate(-1002.000000, -505.000000)">
        <g id="Brand-Section" transform="translate(217.000000, 503.000000)">
            <g id="logo-box" transform="translate(753.000000, 0.000000)">
                <g id="Brand-Icons/jordan" transform="translate(24.000000, -8.000000)">
                    <g id="Jordan">
                        <rect id="Rectangle" x="0" y="0" width="80" height="80"></rect>
                        <g id="Jumpman_logo" transform="translate(8.000000, 10.000000)" fill="#000000" fill-rule="nonzero">
                            <path d="M34.7665108,4.08953796 C34.7419773,3.95875589 34.7251772,3.82341789 34.7161105,3.68647192 C34.5846431,1.78825596 36.006518,0.14222428 37.895329,0.00849425615 C39.7857399,-0.123895788 41.4233494,1.30693507 41.5550835,3.20515103 C41.6868176,5.10336698 40.264676,6.74939866 38.3761318,6.88312869 C38.2566644,6.89224055 38.1385304,6.89384853 38.0225297,6.8892926 C37.9459959,6.9091243 37.900129,6.91850416 37.8342619,6.9769273 C37.6398608,7.2813708 38.3286648,7.22455564 37.8603954,8.55515598 C37.8603954,8.55515598 37.8571954,8.70121383 37.8051951,8.84727167 C37.7683949,9.35807212 37.5726604,10.8717138 37.5449269,11.6778458 C37.6443942,11.7946921 37.6721277,11.8515073 37.6614609,12.1347791 C37.6169273,12.5177454 37.5297268,13.4562676 37.388926,14.0576507 C37.2697253,14.5730071 37.0601241,14.6713616 36.8915898,14.7975878 C36.6542551,15.865284 36.5915881,16.7496709 35.9825179,18.0465038 C35.9273175,19.0295132 35.8585171,19.2972413 35.6534493,19.7772222 C35.6305158,21.2246688 35.7299831,21.4401376 34.7582441,23.7320398 C34.5073093,24.8040239 34.7459774,25.545569 35.0107789,26.6593605 C35.2817138,27.8039716 36.0331848,28.2823445 36.1449188,29.4545592 C36.4081203,32.2149184 36.3422533,34.0946427 35.7529165,36.2589787 L36.2673195,37.4834526 C36.9057232,37.7774442 38.4897324,38.5819684 37.6113273,39.8554855 C38.8481345,40.5091279 40.7169453,41.2029696 42.2582876,42.5276741 C42.8782912,43.0462464 43.5332283,43.612254 44.1209651,44.2766162 C45.2399049,44.4518856 45.1204375,44.5411283 45.9500423,45.0532687 C48.3884565,46.5559225 52.2991458,49.5371105 54.5660923,51.6475793 C54.9564946,51.8767159 55.1156955,52.0415335 55.4308973,52.207691 C55.4799643,52.3028296 55.4935644,52.3245373 55.4828976,52.3505329 C55.3743637,52.6260329 55.3786304,52.6338047 55.2807631,52.8535615 C55.4031638,52.9891675 55.6311652,53.1164656 55.7674326,53.2351879 C55.8946333,53.2751193 55.8946333,53.2137482 56.1135679,53.159881 C56.3981029,53.427609 56.7503716,53.6430778 56.877039,53.63075 C57.2629079,53.5321275 57.1970409,53.6122583 57.5231761,53.2459077 C57.6407768,53.1245055 57.8370446,53.2475157 57.8370446,53.2475157 C57.9594453,53.1030658 58.2226468,52.8152381 58.5733155,52.6075411 C58.8533172,52.4413836 59.3877203,52.4231599 59.3877203,52.4231599 C59.5666546,52.4247678 59.5330544,52.6091491 59.5175877,52.6691802 C59.3157199,52.7739667 58.887184,52.889205 58.6466493,53.0674223 C58.1231796,53.6119903 57.7130439,54.3460315 57.7130439,54.3460315 C58.76745,54.2013136 59.4151871,54.4642177 60.2935922,54.3629152 C60.772795,54.3353116 61.126397,54.3661312 61.6298666,54.0000486 C61.6298666,54.0000486 62.1136027,53.6540657 62.5466719,53.4707564 C62.967741,53.2863751 63.36721,53.3847297 63.7376122,53.6554057 C63.9992137,53.9520773 64.1568146,53.9536852 63.7589456,54.3722951 C63.6152115,54.5352367 63.4069436,54.71667 63.142142,54.9798421 C62.676806,55.4415993 62.050669,56.0579902 61.4018653,56.5674506 C60.7450615,57.082807 59.9997238,57.5456362 59.5343878,57.757889 C58.3605143,58.6055605 58.6375826,58.3839278 57.7146439,59.2240954 C57.5981099,59.3286138 57.2890414,59.5162111 57.1391739,59.6161736 C56.7749051,59.856298 56.6615711,59.656105 56.4242364,59.2163235 C56.4242364,59.2163235 56.3154358,59.0517739 56.1365014,58.7009671 C55.9405003,58.3180008 55.7935661,57.8798272 55.8530331,57.8873311 C55.6343652,57.8594595 54.6498261,56.6995727 54.6471594,56.4506044 C54.4388916,56.4029011 53.5511531,55.5386138 53.5191529,55.3737963 L52.7324817,54.7399856 C51.8324765,54.9275829 51.6258086,54.3661312 49.2487281,52.6710562 C48.9777932,52.6662323 48.5585908,52.5188344 47.9583207,52.0712811 C46.8855144,51.2080658 44.3124328,49.2546427 43.8761636,49.031402 C43.4076276,48.7915455 42.8476243,48.5656249 42.5044224,48.2807451 C41.990286,48.1856065 41.7086844,48.1314713 41.4516163,48.0593803 C41.1884147,47.9870214 40.94948,47.8932228 40.2836095,47.8039801 C39.2001365,47.6686421 38.0763967,47.2178728 37.0065238,46.6797367 C36.5001209,46.4382723 36.0590516,46.3152621 35.6230491,46.1271289 C34.6449101,45.712003 33.8062386,45.3381485 33.1563681,45.1872668 C32.9083667,45.1626111 31.7296932,44.8072484 31.1115563,44.4443817 C30.897155,44.3336994 30.7731543,44.2275729 30.6323535,44.1951454 C30.3078183,44.1198385 30.0995504,44.2490126 29.9528829,44.2983239 C29.1600783,44.7137178 28.417674,45.0720285 27.7318034,45.442935 C27.0933997,45.7859699 26.5056629,46.1426727 25.882726,46.5028593 C25.320856,46.8290105 24.6717856,47.136402 24.0045817,47.4566572 C24.0045817,47.4566572 22.101904,48.4150111 21.062698,48.7872576 C20.1610928,49.5271946 18.3181488,50.8068757 17.1933422,51.4406864 C16.6362723,51.7068064 15.5541327,52.3958243 15.0549298,52.549922 C14.7701282,52.7803986 13.7554556,53.5080078 12.961051,54.108051 C12.3471808,54.5695402 11.8834448,54.9586704 11.8834448,54.9586704 C11.5269094,55.2799977 11.5511762,55.4324874 10.8733056,55.1430517 C10.6850378,55.2984894 10.5397037,55.395236 10.4186363,55.4844786 C9.92903344,55.8414494 9.8874332,55.7554226 9.70849883,55.7460428 C9.36716352,56.0429824 9.32422994,55.8891527 9.02582821,56.2308476 C8.82982707,56.5355591 9.03036157,56.4629322 8.61702583,56.610866 C8.52982533,56.6446335 8.48849176,56.7504919 8.42129137,56.8091831 C8.08902277,57.084415 8.08768943,57.8613355 7.29168482,57.9168107 C6.83088214,58.2472498 6.94874949,58.6460279 6.59674745,58.6288762 C6.61834758,58.9719111 5.97381051,59.4719917 5.85754316,59.4703837 C4.84260395,59.8225305 4.77220354,59.0721416 3.55379647,59.6319854 C3.39619556,59.7043443 3.16499422,59.9045373 2.86045912,59.9626925 C2.32472268,60.064263 1.67725226,59.9578685 1.28231663,59.6504771 C0.660713027,59.1688882 0.0884430415,58.2397459 0.0884430415,58.2397459 C-0.109158104,57.7704849 0.00577589546,57.4738132 0.622579472,57.0305478 C0.87964763,56.8659982 0.927114572,56.742988 1.35885041,56.7135085 C1.57325165,56.6320377 1.51485131,56.7566558 1.89778687,56.6183699 C2.11965482,56.5382391 2.11965482,56.5953222 2.56659075,56.5569988 C2.66899134,56.4875878 2.81299218,56.4629322 3.00579329,56.3999531 C3.35939534,56.2831068 3.70393068,56.1523248 3.70393068,56.1523248 C3.70393068,56.1523248 3.79406453,56.0614741 4.1340665,56.0939016 C4.42180151,55.9754474 4.71726989,55.79991 4.86873743,55.7460428 C4.83033721,55.2877695 4.87940416,55.3092092 5.09060538,55.1248279 C5.35380691,54.8970313 5.40127385,54.9340148 5.59727499,55.0755167 C5.67994214,55.0275454 5.7196757,55.0109296 5.71060898,54.9415187 C5.67834213,54.7030022 5.47487428,54.5907118 5.53620797,54.0649036 C5.44580744,53.8542587 5.31274001,53.5943026 5.34180684,53.4372569 C5.38474042,53.2678834 5.426074,53.1864126 5.52847459,53.1325454 C5.63727522,53.0741222 5.67247543,53.1526451 5.7306091,53.2185721 C5.8346097,53.3402423 5.91887685,53.700161 5.91887685,53.700161 C5.95567707,54.106443 6.08101113,54.6325192 6.48048011,54.3355796 C6.71621481,54.0954552 6.76208174,53.4557486 7.24261786,53.5926946 L7.58555319,53.8925822 C7.87648821,53.6173502 7.89035495,53.6173502 8.06475597,53.5066679 C8.06475597,53.5066679 7.79222105,53.2298279 8.03115577,53.0143591 C8.19489005,52.8680333 8.39222453,52.7635148 8.74289323,52.3727766 C9.70556548,51.3037404 10.1999683,50.8312634 11.2410411,49.9699241 C13.3181198,48.2531415 15.6813335,47.0487673 17.1829422,46.4503321 C17.672545,45.8256333 18.1488144,45.4105075 19.2354874,45.305721 C20.5272282,43.1135134 23.0008426,41.1555343 23.5688459,40.8433189 C24.0309819,40.0018114 24.2315164,40.0910541 24.8360532,39.9219486 C25.3149893,39.5360343 25.42379,39.5360343 25.6381912,39.1329682 C25.8464591,38.3008405 25.1576551,36.0780814 26.9160653,35.965791 C27.2896675,35.4351588 27.1963336,35.562725 27.6126027,35.0613044 C27.331001,34.3629067 27.2147337,33.7784073 27.1381999,33.2753788 C27.1243332,33.2169556 26.4403292,32.7324188 26.6344637,32.0999481 C26.3437953,31.7523573 25.8003255,30.9411332 25.6304578,30.5611149 C25.5525907,30.5627228 25.488057,30.5332433 25.4024565,30.5211834 C25.313656,30.5072477 25.2032554,30.5120716 25.0795213,30.5013517 C24.8056531,31.2118092 24.5072513,31.2643365 24.0203152,31.4211142 C23.1509768,33.2831506 22.8448417,34.071059 20.3850941,35.6106963 C19.4085551,36.709212 19.0962866,37.9334179 19.10082,37.9151942 C18.9325523,38.2780608 18.9920193,38.7859133 19.0808199,39.0581973 C18.9522858,39.4612634 18.985886,39.5011948 18.985886,39.5011948 C19.0394863,39.6534165 19.1789538,39.8549495 19.3501547,39.8978289 C19.6456231,39.9763518 19.9410915,39.9640239 19.9240247,40.2947311 C19.8842912,40.7085169 19.3440214,40.6407139 19.0882866,40.5946186 C18.1040142,40.4375729 18.4149493,39.7930425 17.7856123,40.0082433 C17.3034762,40.3252826 17.1229418,41.2605888 16.3360039,41.1389186 C16.2320033,41.0697756 16.2640035,40.8652946 16.3344039,40.7176288 C16.4448046,40.4868842 16.640539,40.296071 16.5242717,40.2097763 C16.0130687,40.3713779 14.9874628,40.7128049 14.9874628,40.7128049 C14.5053266,40.8451949 13.9770569,40.6037305 14.4517263,40.2850832 C14.672261,40.1990565 14.9874628,40.0913221 15.376265,39.8407458 C15.376265,39.8407458 15.5765329,39.5668538 15.1925306,39.7037998 C14.7730615,39.8546816 14.1546579,39.9482122 13.710922,39.8991689 C13.710922,39.8991689 12.7909167,39.7777667 12.6730494,39.7051398 C12.553582,39.6327808 12.445048,39.3468291 12.732783,39.348437 C13.0970518,39.351653 14.0093238,39.2436506 14.7165279,39.0544454 C15.0578632,38.9207154 15.7069336,38.5348011 16.0712024,38.3530997 C16.0712024,38.3530997 16.466138,37.7747643 16.6834726,37.660866 C17.0461414,37.2409162 17.3522765,36.9932878 17.6736117,36.5639582 C17.9874802,35.9132638 18.3120154,34.882819 19.3512214,33.2874386 C19.8317575,32.5520574 20.4288277,31.6955421 21.1802987,30.9298774 C21.1802987,30.9298774 21.3746998,29.7040635 22.3528388,28.8317364 C22.5688401,28.320936 22.8963086,27.7195528 23.2192439,27.1626571 C23.3448446,26.9487962 23.4640453,26.762807 23.5835126,26.559666 C23.8867144,26.081293 24.2051162,25.1907422 25.3867231,25.0505803 C25.3867231,25.0505803 25.8917927,24.6753858 26.0861938,24.4089978 C26.3893956,24.1490416 26.3203285,23.7446356 26.5667299,23.4597558 C26.1901944,23.0907252 25.2275222,22.3968835 25.1339216,21.4323657 C25.0344544,20.4094248 25.3971231,19.5679173 26.0125934,18.9450945 C26.695264,18.2590246 27.4147348,17.9159897 28.2886066,17.9682489 C29.3798129,18.1311905 29.5864808,18.4943251 29.9339495,18.8542438 C30.2675514,19.1956708 30.3915521,18.975914 30.5323529,19.3757641 C31.4478249,19.6204445 31.3971579,19.5127101 31.3894246,20.1896681 C31.5302254,20.3802133 31.7659601,20.5573587 31.7627601,20.9526528 C32.0704952,20.3110703 32.1315622,20.192884 32.9537003,19.4867145 C33.1481014,18.912935 33.2798355,18.3485353 33.4510365,17.7747558 C33.6110374,17.2441236 33.8102386,16.6979477 33.9646395,16.2871097 C33.8009052,15.1272229 34.1374405,14.9350697 34.5859764,13.9182927 C34.5065093,13.7783988 34.5235761,13.7384674 34.5571763,13.5090628 C34.7315773,12.8369287 35.0041122,11.9477179 35.1662465,11.3677744 C35.1662465,11.3677744 35.2198468,11.1370298 35.4571815,11.1201461 C35.6622493,10.3863729 35.9699845,9.02039711 36.0219848,8.74194922 C36.233186,7.97440856 36.0969185,7.7281202 35.9347843,7.29584259 C35.882784,7.15434068 35.9070508,6.95280766 35.8169169,6.79576198 C35.5614488,6.34820859 35.2859805,5.76665718 35.0993127,5.35126332 C34.9782454,5.08675123 34.7867776,4.08980596 34.7867776,4.08980596 C34.62411,3.58034548 34.7665108,4.08953796 34.7665108,4.08953796" id="Shape"></path>
                        </g>
                    </g>
                </g>
            </g>
        </g>
    </g>
</svg>