<?xml version="1.0" encoding="UTF-8"?>
<svg width="100px" height="100px" viewBox="0 0 100 100" version="1.1" xmlns="http://www.w3.org/2000/svg" xmlns:xlink="http://www.w3.org/1999/xlink">
    <!-- Generator: Sketch 47.1 (45422) - http://www.bohemiancoding.com/sketch -->
    <title>logo/black/puma</title>
    <desc>Created with Sketch.</desc>
    <defs></defs>
    <g id="Symbols" stroke="none" stroke-width="1" fill="none" fill-rule="evenodd">
        <g id="logo/black/puma">
            <g id="Brand-Icons/puma">
                <g id="Puma">
                    <rect id="Rectangle" x="0" y="0" width="100" height="100"></rect>
                    <g transform="translate(0.000000, 25.000000)" fill-rule="nonzero" fill="#000000">
                        <path d="M53.9028135,0.587781054 C53.5823796,0.637080381 53.2742706,1.81713706 52.6549699,2.4318156 C52.2020559,2.87548632 51.6366778,2.84775538 51.3362718,3.39619949 C51.2222662,3.60108754 51.2592415,3.95079396 51.1298301,4.28663381 C50.8771831,4.95830244 49.9867476,5.01838541 49.9867476,5.75015028 C49.9836669,6.54044449 50.7292962,6.69142429 51.3747863,7.25218132 C51.8785412,7.70355496 51.9278404,8.01474569 52.5378969,8.23349922 C53.0585978,8.41066962 53.8334862,7.83142491 54.5313576,8.03939481 C55.1044387,8.21040265 55.6528706,8.33363935 55.7822819,8.92212622 C55.8962865,9.46439559 55.7745791,10.3055439 55.0797896,10.2084856 C54.8456291,10.182295 53.8304054,9.84029149 52.582574,9.97278474 C51.0774612,10.1437793 49.3597451,10.635209 49.1918313,12.3128701 C49.0993951,13.2510634 50.2594238,14.3571705 51.3794085,14.1322544 C52.1542969,13.9797331 51.7876454,13.06619 52.2097588,12.6225193 C52.7628129,12.0540594 55.8962865,14.6067368 58.809454,14.6067368 C60.0357281,14.6067368 60.9477319,14.2970864 61.8535721,13.3481095 C61.9382931,13.2757125 62.041514,13.1201116 62.1724657,13.1108672 C62.2957025,13.1201116 62.5113874,13.241819 62.5822429,13.2942001 C64.9285029,15.1798178 66.7016687,18.9618634 75.3240959,19.0065406 C76.5365046,19.0127031 77.9183687,19.5919478 79.0460563,20.6210247 C80.0520244,21.551515 80.6405124,22.9980843 81.2120531,24.4662218 C82.0747565,26.669206 83.6214657,28.8121051 85.9661732,31.1968675 C86.0940432,31.3247387 88.0243513,32.8252293 88.1783997,32.9376813 C88.2030499,32.9530871 88.3447853,33.2920088 88.295486,33.481491 C88.2384838,34.9111262 88.0305138,39.0690554 91.1300818,39.2569974 C91.888036,39.2955129 91.6892984,38.7624869 91.6892984,38.3958343 C91.6877569,37.6717734 91.5552781,36.9523459 91.9373365,36.2113376 C92.4595778,35.1915051 90.8296757,34.7216318 90.8774347,32.5171204 C90.9113282,30.8733528 89.5310046,31.1537307 88.8300525,29.901266 C88.4264256,29.1756759 88.0674759,28.7905368 88.0936665,27.9031831 C88.2508088,22.908741 87.0306962,19.6273694 86.4221801,18.8216684 C85.9476978,18.2131524 85.5548557,17.971289 85.9892821,17.6893706 C88.575865,15.98091 89.1628116,14.391064 89.1628116,14.391064 C90.5385131,11.1574625 91.7755719,8.20424009 93.4809518,6.90401637 C93.8244946,6.63596241 94.7056856,5.97814709 95.2464268,5.7193375 C96.837801,4.96908607 97.6758553,4.51463172 98.1380247,4.06478628 C98.8697775,3.35152124 99.4474928,1.86489601 98.7465407,0.963676947 C97.8745929,-0.148604901 96.3663994,0.734126509 95.7008812,1.12851006 C90.9452218,3.95079396 90.2442696,8.92982913 88.5974334,11.7890872 C87.2833431,14.0737107 85.1466066,15.7513585 83.2363387,15.8884728 C81.8036218,15.9947756 80.2599943,15.7051532 78.7225416,15.0303916 C74.9836328,13.3912462 72.9377919,11.2745366 72.4555934,10.9001933 C71.4511668,10.1252927 63.6529284,2.47033019 57.3351528,2.15759909 C57.3351528,2.15759909 56.5510078,0.587781054 56.3538226,0.561591581 C55.8916654,0.50304787 55.4187101,1.49978487 55.0797896,1.61531756 C54.7608959,1.72162023 54.2247891,0.535401003 53.9028135,0.587781054" id="path20"></path>
                        <path d="M26.0898171,46.275725 C25.4951676,46.2618596 24.9898691,45.7734985 24.9898691,45.1696047 L24.9914096,25.4629588 L18.4964712,25.4629588 L18.4964712,47.1861874 C18.4964712,48.2506981 19.3591779,49.1195641 20.4175316,49.1195641 L31.7698066,49.1195641 C32.8358643,49.1195641 33.6877851,48.2506981 33.6877851,47.1861874 L33.6877851,25.4629588 L27.1990116,25.4629588 L27.192849,45.1696047 C27.192849,45.7734985 26.6875506,46.2618596 26.0898171,46.275725" id="path24"></path>
                        <path d="M47.8361456,25.4629588 L38.0059309,25.4629588 C36.8428215,25.4629588 35.8953872,26.408855 35.8953872,27.5842894 L35.8953872,49.1195641 L42.3964925,49.1195641 L42.3964925,29.3651593 C42.4011135,28.759725 42.8910029,28.2806204 43.4948966,28.2806204 C44.1018712,28.2806204 44.5886787,28.7489403 44.6025441,29.3482119 L44.6025441,49.1195641 L51.0774612,49.1195641 L51.0774612,29.3482119 C51.0851651,28.7489403 51.5719726,28.2806204 52.1774068,28.2806204 C52.7782188,28.2806204 53.2742706,28.759725 53.2788918,29.3651593 L53.2788918,49.1195641 L59.7799993,49.1195641 L59.7799993,27.5842894 C59.7799993,26.408855 58.8310224,25.4629588 57.6679119,25.4629588 L47.8361456,25.4629588" id="path28"></path>
                        <path d="M9.80471794,29.4067556 C9.80934013,28.7489403 9.27322888,28.2806204 8.70476784,28.2806204 L7.6017381,28.2806204 L7.6017381,40.2460303 L8.70476784,40.2460303 C9.27785107,40.2460303 9.80934013,39.7900234 9.80471794,39.1353021 L9.80471794,29.4067556 Z M14.1629196,43.1746035 L7.6017381,43.1746035 L7.6017381,49.1195641 L1.10988161,49.1195641 L1.10988161,25.4629588 L14.2045138,25.4629588 C15.3768687,25.4629588 16.2919522,26.4150175 16.2919522,27.5935338 L16.2919522,41.0440285 C16.2919522,42.2240851 15.3414359,43.1746035 14.1629196,43.1746035 L14.1629196,43.1746035 Z" id="path32"></path>
                        <path d="M82.0578103,43.8293371 C80.7529765,43.8293371 79.6576409,44.9570137 79.6576409,46.3234829 C79.6576409,47.6945632 80.7529765,48.8129956 82.0994066,48.8129956 C83.4350643,48.8129956 84.5165222,47.6945632 84.5165222,46.3234829 C84.5165222,44.9539319 83.4350643,43.8293371 82.0994066,43.8293371 L82.0578103,43.8293371 Z M84.9817735,46.31578 C84.9817735,47.9225612 83.6938749,49.2289475 82.0994066,49.2289475 C80.4880044,49.2289475 79.1939432,47.9318046 79.1939432,46.31578 C79.1939432,44.7305562 80.4880044,43.4056822 82.0516476,43.4056822 C83.6938749,43.4056822 84.9817735,44.6905001 84.9817735,46.31578 L84.9817735,46.31578 Z" id="path36"></path>
                        <path d="M81.7990007,46.1309078 C82.2503865,46.1309078 82.4876276,45.9706969 82.4876276,45.6502629 C82.4876276,45.3652616 82.2580894,45.218904 81.8190287,45.218904 L81.6896294,45.218904 L81.6896294,46.1309078 L81.7990007,46.1309078 Z M83.4612549,48.0011319 L82.6863532,48.0011319 L81.6896294,46.6747175 L81.6896294,48.0011319 L81.0564643,48.0011319 L81.0564643,44.6473634 L81.7219825,44.6473634 C82.6262824,44.6473634 83.1069274,44.9893657 83.1069274,45.6425588 C83.1069274,46.0785266 82.8234675,46.4652074 82.4275435,46.5807532 L82.381326,46.5976994 L83.4612549,48.0011319 L83.4612549,48.0011319 Z" id="path40"></path>
                        <path d="M70.6793469,40.2506525 L70.6793469,29.3574563 C70.66394,28.7551028 70.178674,28.2929444 69.5732387,28.2929444 C68.9739671,28.2929444 68.4779163,28.7735904 68.4732941,29.3744025 L68.4732941,40.2506525 L70.6793469,40.2506525 Z M70.6793469,49.1195641 L70.6793469,43.1807662 L68.4732941,43.1807662 L68.4732941,49.1195641 L61.9845118,49.1195641 L61.9845118,27.5842894 C61.9845118,26.408855 62.9319482,25.4629588 64.0950588,25.4629588 L75.0575824,25.4629588 C76.2237735,25.4629588 77.17121,26.408855 77.17121,27.5842894 L77.17121,49.1195641 L70.6793469,49.1195641 L70.6793469,49.1195641 Z" id="path44"></path>
                    </g>
                </g>
            </g>
        </g>
    </g>
</svg>